<?xml version="1.0" encoding="UTF-8"?>
<svg width="185px" height="25px" viewBox="0 0 185 25" version="1.1" xmlns="http://www.w3.org/2000/svg" xmlns:xlink="http://www.w3.org/1999/xlink">
    <!-- Generator: Sketch 42 (36781) - http://www.bohemiancoding.com/sketch -->
    <title>beta-logotipo-home-saldos</title>
    <desc>Created with Sketch.</desc>
    <defs></defs>
    <g id="Protótipo---processo-seletivo" stroke="none" stroke-width="1" fill="none" fill-rule="evenodd">
        <g id="Home-saldos" transform="translate(-68.000000, -37.000000)">
            <g id="beta-logotipo-home-saldos" transform="translate(62.000000, 29.000000)">
                <g id="beta-logotipo-colorido-interna">
                    <g id="Camada_1">
                        <g id="XMLID_14_">
                            <g id="XMLID_916_"></g>
                            <g id="XMLID_914_" transform="translate(26.266667, 17.333333)" fill-rule="nonzero" fill="#2D1B77">
                                <path d="M1.83866667,8.93333333 L0.656666667,8.26666667 C1.70733333,6.53333333 2.23266667,4.66666667 2.23266667,2.66666667 C2.23266667,1.86666667 2.10133333,1.06666667 1.97,0.266666667 L3.28333333,0 C3.546,0.933333333 3.546,1.73333333 3.546,2.66666667 C3.67733333,4.8 3.02066667,7.06666667 1.83866667,8.93333333 Z" id="XMLID_915_"></path>
                            </g>
                            <g id="XMLID_912_" transform="translate(27.580000, 14.666667)" fill-rule="nonzero" fill="#2D1B77">
                                <path d="M0.394,1.86666667 C0.262666667,1.6 0.131333333,1.2 0,0.933333333 L1.182,0.4 C1.31333333,0.666666667 1.44466667,1.06666667 1.576,1.46666667 L0.394,1.86666667 Z" id="XMLID_913_"></path>
                            </g>
                            <g id="XMLID_910_" transform="translate(26.266667, 12.975610)" fill-rule="nonzero" fill="#2D1B77">
                                <path d="M0.919333333,1.69105691 C0.788,1.42439024 0.656666667,1.15772358 0.394,0.891056911 L1.576,0.0910569106 C1.83866667,0.357723577 1.97,0.757723577 2.10133333,1.02439024 L0.919333333,1.69105691 Z" id="XMLID_911_"></path>
                            </g>
                            <g id="XMLID_908_" transform="translate(24.953333, 11.642276)" fill-rule="nonzero" fill="#2D1B77">
                                <path d="M1.31333333,1.69105691 C1.182,1.42439024 0.919333333,1.29105691 0.788,1.02439024 L1.83866667,0.0910569106 C2.10133333,0.357723577 2.23266667,0.624390244 2.49533333,0.891056911 L1.31333333,1.69105691 Z" id="XMLID_909_"></path>
                            </g>
                            <g id="XMLID_853_" transform="translate(23.640000, 10.476190)" fill-rule="nonzero" fill="#2D1B77">
                                <path d="M1.44466667,1.65714286 C1.182,1.52380952 1.05066667,1.25714286 0.788,1.12380952 L1.576,0.0571428571 C1.83866667,0.19047619 2.10133333,0.457142857 2.23266667,0.723809524 L1.44466667,1.65714286 Z" id="XMLID_907_"></path>
                            </g>
                            <g id="XMLID_851_" transform="translate(5.253333, 8.000000)" fill-rule="nonzero" fill="#2D1B77">
                                <path d="M12.7393333,24 C6.17266667,24 0.919333333,18.5333333 0.919333333,12 C0.919333333,5.46666667 6.304,0 12.7393333,0 C14.972,0 17.2046667,0.666666667 19.0433333,1.86666667 L18.3866667,2.93333333 C16.6793333,1.86666667 14.7093333,1.33333333 12.7393333,1.33333333 C6.96066667,1.33333333 2.23266667,6.13333333 2.23266667,12 C2.23266667,17.8666667 6.96066667,22.6666667 12.7393333,22.6666667 C14.8406667,22.6666667 16.942,22 18.7806667,20.8 L19.5686667,22 C17.5986667,23.3333333 15.2346667,24 12.7393333,24 Z" id="XMLID_852_"></path>
                            </g>
                            <g id="XMLID_847_" transform="translate(9.193333, 11.642276)" fill-rule="nonzero" fill="#2D1B77">
                                <path d="M8.79933333,16.6243902 C4.334,16.6243902 0.656666667,12.8910569 0.656666667,8.35772358 C0.656666667,3.82439024 4.334,0.0910569106 8.79933333,0.0910569106 C13.2646667,0.0910569106 16.942,3.82439024 16.942,8.35772358 C16.942,12.8910569 13.2646667,16.6243902 8.79933333,16.6243902 Z M8.79933333,0.757723577 C4.728,0.757723577 1.31333333,4.09105691 1.31333333,8.35772358 C1.31333333,12.6243902 4.728,15.9577236 8.79933333,15.9577236 C12.8706667,15.9577236 16.2853333,12.4910569 16.2853333,8.35772358 C16.2853333,4.22439024 13.002,0.757723577 8.79933333,0.757723577 Z" id="XMLID_848_"></path>
                            </g>
                            <ellipse id="XMLID_846_" fill="#2D1B77" fill-rule="nonzero" cx="26.2666667" cy="27.8666667" rx="1.576" ry="1.6"></ellipse>
                            <g id="XMLID_844_" transform="translate(14.272062, 16.000000)" fill-rule="nonzero" fill="#2D1B77">
                                <path d="M3.72060501,0.266666667 C2.93260501,0.266666667 2.14460501,0.533333333 1.48793834,1.06666667 C1.75060501,0.933333333 2.01327168,0.8 2.27593834,0.8 C3.19527168,0.8 3.85193834,1.46666667 3.85193834,2.4 C3.85193834,3.33333333 3.06393834,4 2.27593834,4 C1.48793834,4 0.699938343,3.33333333 0.699938343,2.4 C0.699938343,2.13333333 0.831271676,1.86666667 0.96260501,1.6 C0.437271676,2.26666667 0.0432716763,3.06666667 0.0432716763,4 C0.0432716763,6 1.75060501,7.73333333 3.72060501,7.73333333 C5.69060501,7.73333333 7.39793834,6 7.39793834,4 C7.39793834,2 5.82193834,0.266666667 3.72060501,0.266666667 Z" id="XMLID_845_"></path>
                            </g>
                            <path d="M50.826,23.7333333 C50.826,27.6 47.4113333,28.6666667 43.9966667,28.6666667 C42.4206667,28.6666667 40.976,28.4 39.6626667,28.1333333 L39.6626667,11.8666667 C40.976,11.6 42.6833333,11.4666667 44.2593333,11.4666667 C47.0173333,11.4666667 49.644,12.2666667 49.644,15.6 C49.644,17.2 48.9873333,18.5333333 47.4113333,19.2 C49.9066667,19.8666667 50.826,21.4666667 50.826,23.7333333 Z M41.37,18.5333333 L44.916,18.5333333 C46.886,18.4 47.9366667,17.3333333 47.9366667,15.7333333 C47.9366667,13.3333333 46.098,12.8 44.128,12.8 C43.2086667,12.8 42.158,12.9333333 41.2386667,13.0666667 L41.2386667,18.5333333 L41.37,18.5333333 Z M41.37,26.9333333 C42.158,27.0666667 43.2086667,27.2 44.2593333,27.2 C46.6233333,27.2 48.9873333,26.4 48.9873333,23.4666667 C48.9873333,20.6666667 46.6233333,20 44.128,20 L41.37,20 L41.37,26.9333333 Z" id="XMLID_813_" fill="#2D1B77" fill-rule="nonzero"></path>
                            <polygon id="XMLID_811_" fill="#2D1B77" fill-rule="nonzero" points="64.0906667 28.5333333 54.2406667 28.5333333 54.2406667 11.4666667 63.828 11.4666667 63.828 12.9333333 55.948 12.9333333 55.948 18.9333333 63.434 18.9333333 63.434 20.4 55.948 20.4 55.948 26.9333333 64.0906667 26.9333333"></polygon>
                            <polygon id="XMLID_809_" fill="#2D1B77" fill-rule="nonzero" points="66.0606667 11.4666667 77.7493333 11.4666667 77.7493333 12.9333333 72.7586667 12.9333333 72.7586667 28.5333333 71.0513333 28.5333333 71.0513333 12.9333333 66.0606667 12.9333333 66.0606667 11.4666667"></polygon>
                            <path d="M79.3253333,28.5333333 L77.4866667,28.5333333 L83.528,11.4666667 L85.7606667,11.4666667 L91.9333333,28.5333333 L90.226,28.5333333 L88.65,23.8666667 L80.9013333,23.8666667 L79.3253333,28.5333333 Z M81.4266667,22.4 L88.1246667,22.4 L84.8413333,12.6666667 L81.4266667,22.4 Z" id="XMLID_806_" fill="#2D1B77" fill-rule="nonzero"></path>
                            <polygon id="XMLID_804_" fill="#2D1B77" fill-rule="nonzero" points="94.166 29.4666667 92.8526667 28.9333333 101.389333 10.4 102.702667 10.9333333"></polygon>
                            <polygon id="XMLID_802_" fill="#2D1B77" fill-rule="nonzero" points="101.389333 29.4666667 100.076 28.9333333 108.612667 10.4 109.926 10.9333333"></polygon>
                            <path d="M111.370667,20 C111.370667,15.4666667 112.684,11.2 118.725333,11.2 C124.898,11.2 126.08,15.6 126.08,20 C126.08,23.2 125.029333,26.5333333 122.534,27.7333333 C124.504,28 126.605333,28.8 127.918667,29.6 L126.08,32.1333333 C126.08,32.1333333 123.584667,29.7333333 118.725333,28.9333333 C112.552667,28.8 111.370667,24.5333333 111.370667,20 Z M122.534,20 C122.534,16.8 122.14,14.1333333 118.856667,14.1333333 C115.573333,14.1333333 115.179333,16.8 115.179333,20 C115.179333,23.2 115.704667,25.7333333 118.856667,25.7333333 C122.008667,25.7333333 122.534,23.2 122.534,20 Z" id="XMLID_799_" fill="#2D1B77" fill-rule="nonzero"></path>
                            <path d="M135.536,28.8 C130.808,28.8 128.969333,26.6666667 128.969333,22.1333333 L128.969333,11.4666667 L132.778,11.4666667 L132.778,22.1333333 C132.778,24.4 133.040667,25.7333333 135.667333,25.7333333 C138.162667,25.7333333 138.425333,24.5333333 138.425333,22.1333333 L138.425333,11.4666667 L142.234,11.4666667 L142.234,22.2666667 C142.234,26.6666667 140.526667,28.8 135.536,28.8 Z" id="XMLID_797_" fill="#2D1B77" fill-rule="nonzero"></path>
                            <path d="M155.367333,28.5333333 L154.054,24.5333333 L148.406667,24.5333333 L147.093333,28.5333333 L143.284667,28.5333333 L149.194667,11.4666667 L153.266,11.4666667 L158.913333,28.5333333 L155.367333,28.5333333 Z M151.296,14.9333333 L149.326,21.6 L153.134667,21.6 L151.296,14.9333333 Z" id="XMLID_794_" fill="#2D1B77" fill-rule="nonzero"></path>
                            <path d="M160.620667,11.7333333 C162.065333,11.4666667 164.166667,11.2 166.136667,11.2 C169.551333,11.2 172.834667,12.1333333 172.834667,16.9333333 C172.834667,19.8666667 171.521333,21.6 169.42,22.2666667 L173.622667,28.4 L169.551333,28.4 L166.005333,22.5333333 C165.48,22.5333333 164.823333,22.4 164.298,22.2666667 L164.298,28.4 L160.620667,28.4 L160.620667,11.7333333 Z M166.005333,20.1333333 C167.712667,20.1333333 169.157333,19.6 169.157333,17.0666667 C169.157333,14.5333333 167.581333,14 166.005333,14 C165.348667,14 164.692,14 164.166667,14.1333333 L164.166667,20 C164.823333,20 165.48,20.1333333 166.005333,20.1333333 Z" id="XMLID_791_" fill="#2D1B77" fill-rule="nonzero"></path>
                            <polygon id="XMLID_789_" fill="#2D1B77" fill-rule="nonzero" points="179.27 18.5333333 181.371333 18.5333333 185.442667 11.4666667 189.776667 11.4666667 184.654667 19.8666667 190.958667 28.5333333 186.493333 28.5333333 181.502667 21.2 179.401333 21.2 179.401333 28.5333333 175.724 28.5333333 175.724 11.4666667 179.401333 11.4666667 179.401333 18.5333333"></polygon>
                        </g>
                    </g>
                </g>
            </g>
        </g>
    </g>
</svg>