<?xml version="1.0" encoding="UTF-8"?>
<svg width="157px" height="157px" viewBox="0 0 157 157" version="1.1" xmlns="http://www.w3.org/2000/svg" xmlns:xlink="http://www.w3.org/1999/xlink">
    <!-- Generator: Sketch 42 (36781) - http://www.bohemiancoding.com/sketch -->
    <title>beta-icone-processo-2017</title>
    <desc>Created with Sketch.</desc>
    <defs></defs>
    <g id="Protótipo---processo-seletivo" stroke="none" stroke-width="1" fill="none" fill-rule="evenodd">
        <g id="Tela-login" transform="translate(-82.000000, -114.000000)">
            <g id="beta-icone-processo-2017" transform="translate(74.000000, 106.000000)">
                <g id="Camada_1">
                    <g>
                        <g id="XMLID_27_">
                            <g id="XMLID_901_"></g>
                            <g id="XMLID_899_" transform="translate(145.320000, 68.508000)" fill-rule="nonzero" fill="#EDF7F9">
                                <path d="M8.0272,58.82 L0.346,54.1144 C6.9892,43.25 10.5184,30.7248 10.5184,17.9228 C10.5184,12.6636 9.8956,7.4044 8.7192,2.2836 L17.5076,0.2768 C18.8224,6.0204 19.5144,11.9716 19.5144,17.9228 C19.5144,32.4548 15.57,46.5716 8.0272,58.82 Z" id="XMLID_900_"></path>
                            </g>
                            <g id="XMLID_897_" transform="translate(149.472000, 53.976000)" fill-rule="nonzero" fill="#EDF7F9">
                                <path d="M2.5604,9.7572 C1.8684,7.8196 1.1072,5.8128 0.2768,3.9444 L8.4424,0.2768 C9.4112,2.422 10.3108,4.6364 11.072,6.8508 L2.5604,9.7572 Z" id="XMLID_898_"></path>
                            </g>
                            <g id="XMLID_867_" transform="translate(143.244000, 41.520000)" fill-rule="nonzero" fill="#EDF7F9">
                                <path d="M3.6676,10.9336 C2.6296,9.1344 1.5224,7.3352 0.346,5.6744 L7.7504,0.5536 C9.0652,2.4912 10.3108,4.498 11.4872,6.5048 L3.6676,10.9336 Z" id="XMLID_896_"></path>
                            </g>
                            <g id="XMLID_865_" transform="translate(137.016000, 32.524000)" fill-rule="nonzero" fill="#EDF7F9">
                                <path d="M3.7368,10.726 C2.5604,9.2728 1.3148,7.8196 0.0692,6.5048 L6.6432,0.346 C8.0964,1.8684 9.4804,3.46 10.7952,5.1208 L3.7368,10.726 Z" id="XMLID_866_"></path>
                            </g>
                            <g id="XMLID_863_" transform="translate(128.712000, 24.220000)" fill-rule="nonzero" fill="#EDF7F9">
                                <path d="M4.5672,11.072 C3.2524,9.8264 1.7992,8.65 0.346,7.5428 L5.882,0.4152 C7.5428,1.6608 9.1344,3.0448 10.6568,4.4288 L4.5672,11.072 Z" id="XMLID_864_"></path>
                            </g>
                            <g id="XMLID_481_" transform="translate(7.612000, 7.612000)" fill-rule="nonzero" fill="#EDF7F9">
                                <path d="M78.888,157.2224 C35.7072,157.2224 0.5536,122.0688 0.5536,78.888 C0.5536,35.7072 35.7072,0.5536 78.888,0.5536 C93.8352,0.5536 108.298,4.7748 120.8232,12.7328 L115.9792,20.3448 C104.9072,13.2864 92.036,9.5496 78.8188,9.5496 C40.5512,9.5496 9.4804,40.6896 9.4804,78.888 C9.4804,117.1556 40.6204,148.2264 78.8188,148.2264 C93.074,148.2264 106.8448,143.936 118.4704,135.7704 L123.5912,143.1748 C110.5124,152.3784 95.0116,157.2224 78.888,157.2224 Z" id="XMLID_862_"></path>
                            </g>
                            <g id="XMLID_477_" transform="translate(32.524000, 32.524000)" fill-rule="nonzero" fill="#EDF7F9">
                                <path d="M53.976,107.8828 C24.22,107.8828 0.0692,83.732 0.0692,53.976 C0.0692,24.22 24.22,0.0692 53.976,0.0692 C83.732,0.0692 107.8828,24.22 107.8828,53.976 C107.8828,83.732 83.732,107.8828 53.976,107.8828 Z M53.976,4.5672 C26.7112,4.5672 4.5672,26.7112 4.5672,53.976 C4.5672,81.2408 26.7112,103.3848 53.976,103.3848 C81.2408,103.3848 103.3848,81.2408 103.3848,53.976 C103.3848,26.7112 81.2408,4.5672 53.976,4.5672 Z" id="XMLID_478_"></path>
                            </g>
                            <ellipse id="XMLID_474_" fill="#EDF7F9" fill-rule="nonzero" cx="141.2372" cy="137.4312" rx="10.2416" ry="10.2416"></ellipse>
                            <g id="XMLID_471_" transform="translate(61.588000, 61.588000)" fill-rule="nonzero" fill="#EDF7F9">
                                <path d="M24.912,0.6228 C19.3068,0.6228 14.2552,2.5604 10.1032,5.7436 C11.6256,4.844 13.3556,4.3596 15.224,4.3596 C20.8984,4.3596 25.4656,8.9268 25.4656,14.6012 C25.4656,20.2756 20.8984,24.912 15.224,24.912 C9.5496,24.912 4.9824,20.3448 4.9824,14.6704 C4.9824,12.6636 5.6052,10.7952 6.574,9.2036 C2.9064,13.4248 0.6228,18.8916 0.6228,24.912 C0.6228,38.3368 11.4872,49.2012 24.912,49.2012 C38.3368,49.2012 49.2012,38.3368 49.2012,24.912 C49.2012,11.4872 38.3368,0.6228 24.912,0.6228 Z" id="XMLID_473_"></path>
                            </g>
                        </g>
                    </g>
                </g>
            </g>
        </g>
    </g>
</svg>