<?xml version="1.0" encoding="UTF-8"?>
<svg width="30px" height="30px" viewBox="0 0 30 30" version="1.1" xmlns="http://www.w3.org/2000/svg" xmlns:xlink="http://www.w3.org/1999/xlink">
    <!-- Generator: Sketch 42 (36781) - http://www.bohemiancoding.com/sketch -->
    <title>beta-quark-procurar-produtos</title>
    <desc>Created with Sketch.</desc>
    <defs></defs>
    <g id="Protótipo---processo-seletivo" stroke="none" stroke-width="1" fill="none" fill-rule="evenodd">
        <g id="Home-saldos" transform="translate(-244.000000, -615.000000)" fill="#2D1B77">
            <g id="beta-quark-procurar-produtos" transform="translate(244.000000, 615.000000)">
                <g id="betaquark-comprar">
                    <g id="Camada_1" fill-rule="nonzero">
                        <g id="XMLID_20_">
                            <g id="XMLID_21_">
                                <path d="M22.5,11.3 C22.5,5.1 17.5,0 11.3,0 C5,0 0,5 0,11.3 C0,17.5 5,22.5 11.3,22.5 C17.5,22.5 22.5,17.5 22.5,11.3 L22.5,11.3 Z M11.3,19.7 C6.6,19.7 2.9,15.9 2.9,11.3 C2.9,6.6 6.7,2.9 11.3,2.9 C16,2.9 19.7,6.7 19.7,11.3 C19.7,15.9 15.9,19.7 11.3,19.7 L11.3,19.7 Z" id="XMLID_25_"></path>
                                <path d="M29.2,25.2 L22.3,18.3 C21.3,19.9 19.9,21.3 18.3,22.3 L25.2,29.2 C26.3,30.3 28.1,30.3 29.2,29.2 C30.3,28.1 30.3,26.3 29.2,25.2 L29.2,25.2 Z" id="XMLID_22_"></path>
                            </g>
                        </g>
                    </g>
                </g>
            </g>
        </g>
    </g>
</svg>