<?xml version="1.0" encoding="UTF-8"?>
<svg width="23px" height="24px" viewBox="0 0 23 24" version="1.1" xmlns="http://www.w3.org/2000/svg" xmlns:xlink="http://www.w3.org/1999/xlink">
    <!-- Generator: Sketch 42 (36781) - http://www.bohemiancoding.com/sketch -->
    <title>beta-quark-register-product</title>
    <desc>Created with Sketch.</desc>
    <defs></defs>
    <g id="Protótipo---processo-seletivo" stroke="none" stroke-width="1" fill="none" fill-rule="evenodd">
        <g id="Cadastrar-produto" transform="translate(-97.000000, -36.000000)" fill-rule="nonzero" fill="#311B70">
            <g id="Group" transform="translate(97.000000, 36.000000)">
                <g id="beta-quark-register-product">
                    <g id="Camada_1">
                        <path d="M22.6125,12.3284211 L19.15,8.82947368 C18.7,8.37473684 17.975,8.37473684 17.525,8.82947368 L16.8375,9.52421053 L16.8375,1.16210526 C16.8375,0.517894737 16.325,0 15.6875,0 L1.1875,0 C0.55,0 0.0375,0.517894737 0.0375,1.16210526 L0.0375,19.68 C0.0375,20.3242105 0.55,20.8421053 1.1875,20.8421053 L7.675,20.8421053 L7.675,22.7747368 C7.675,23.4189474 8.1875,23.9368421 8.825,23.9368421 L12.2875,23.9368421 C12.5875,23.9368421 12.8875,23.8105263 13.1,23.5957895 L22.6125,13.9831579 C23.0625,13.5031579 23.0625,12.7705263 22.6125,12.3284211 L22.6125,12.3284211 Z M2.3375,2.31157895 L14.55,2.31157895 L14.55,11.8357895 L8.0125,18.4421053 C7.9875,18.4673684 7.9625,18.4926316 7.95,18.5178947 L2.3375,18.5178947 L2.3375,2.31157895 Z M11.8125,21.6 L9.975,21.6 L9.975,19.7431579 L18.35,11.28 L20.1875,13.1368421 L11.8125,21.6 Z" id="XMLID_60_"></path>
                    </g>
                </g>
            </g>
        </g>
    </g>
</svg>