<?xml version="1.0" encoding="UTF-8"?>
<svg width="42px" height="30px" viewBox="0 0 42 30" version="1.1" xmlns="http://www.w3.org/2000/svg" xmlns:xlink="http://www.w3.org/1999/xlink">
    <!-- Generator: Sketch 42 (36781) - http://www.bohemiancoding.com/sketch -->
    <title>betaquark-saldo-menu-inferior</title>
    <desc>Created with Sketch.</desc>
    <defs></defs>
    <g id="Protótipo---processo-seletivo" stroke="none" stroke-width="1" fill="none" fill-rule="evenodd">
        <g id="Home-saldos" transform="translate(-39.000000, -617.000000)" fill="#2D1B77">
            <g id="betaquark-saldo-menu-inferior" transform="translate(39.000000, 617.000000)">
                <g id="XMLID_15_">
                    <path d="M19.8,19.4 C19.8,20.5 19.5,21.6 19,22.6 C18.4,23.7 17.6,24.6 16.3,25.3 C15.1,26.1 13.5,26.6 11.5,26.7 L11.5,30 L8.7,30 L8.7,26.8 C7.5,26.7 6.2,26.3 4.8,25.9 C3.4,25.5 2.2,24.8 1,24 L1,18.8 C1.8,19.4 2.6,19.9 3.4,20.5 C4.2,21 5.1,21.4 6,21.8 C6.9,22.2 7.8,22.4 8.7,22.5 L8.7,16.4 C6.5,15.8 4.7,15.1 3.6,14.3 C2.4,13.5 1.6,12.6 1.2,11.7 C0.8,10.8 0.6,9.9 0.6,8.9 C0.7,8 0.9,7 1.3,6 C1.7,5 2.6,4.1 3.8,3.2 C5,2.4 6.7,1.8 8.8,1.6 L8.8,0 L11.6,0 L11.6,1.6 C12.9,1.8 14.1,2.1 15.3,2.5 C16.4,2.9 17.6,3.6 19,4.4 L19,9.8 C18.2,9.1 17.1,8.4 15.8,7.7 C14.5,7 13.1,6.5 11.7,6.1 L11.7,11.1 C14.2,12 16.2,13 17.7,14.2 C19.1,15.5 19.8,17.2 19.8,19.4 Z M8.8,10.4 L8.8,5.9 C8.1,5.9 7.4,6.1 6.9,6.5 C6.4,6.9 6.1,7.4 6.1,8 C6.1,8.4 6.3,8.9 6.7,9.4 C7,9.8 7.7,10.2 8.8,10.4 Z M14.4,19.9 C14.4,19.3 14.2,18.7 13.7,18.3 C13.2,17.9 12.5,17.5 11.5,17 L11.5,22.4 C12.3,22.2 13,22 13.5,21.6 C14.1,21.3 14.4,20.7 14.4,19.9 Z" id="XMLID_16_" fill-rule="nonzero"></path>
                    <path d="M41.3,19.4 C41.3,20.5 41,21.6 40.5,22.6 C39.9,23.7 39.1,24.6 37.8,25.3 C36.6,26.1 35,26.6 33,26.7 L33,30 L30.2,30 L30.2,26.8 C29,26.7 27.7,26.3 26.3,25.9 C24.9,25.4 23.6,24.8 22.4,24.1 L22.4,18.9 C23.2,19.5 24,20 24.8,20.6 C25.6,21.1 26.5,21.5 27.4,21.9 C28.3,22.3 29.2,22.5 30.1,22.6 L30.1,16.5 C27.9,15.9 26.1,15.2 25,14.4 C23.8,13.6 23,12.7 22.6,11.8 C22.2,10.9 22,10 22,9 C22,8.1 22.2,7.2 22.7,6.2 C23.2,5.2 24,4.3 25.2,3.4 C26.4,2.6 28.1,2 30.2,1.8 L30.2,0 L33,0 L33,1.6 C34.3,1.8 35.5,2.1 36.7,2.5 C37.8,2.9 39,3.6 40.4,4.4 L40.4,9.8 C39.6,9.1 38.5,8.4 37.2,7.7 C35.9,7 34.5,6.5 33.1,6.1 L33.1,11.1 C35.6,12 37.6,13 39.1,14.2 C40.6,15.5 41.3,17.2 41.3,19.4 Z M30.3,10.4 L30.3,5.9 C29.6,5.9 28.9,6.1 28.4,6.5 C27.9,6.9 27.6,7.4 27.6,8 C27.6,8.4 27.8,8.9 28.2,9.4 C28.5,9.8 29.2,10.2 30.3,10.4 Z M35.9,19.9 C35.9,19.3 35.7,18.7 35.2,18.3 C34.8,17.9 34,17.5 33,17 L33,22.4 C33.8,22.2 34.5,22 35,21.6 C35.6,21.3 35.9,20.7 35.9,19.9 Z" id="XMLID_20_" fill-rule="nonzero"></path>
                </g>
            </g>
        </g>
    </g>
</svg>