<?xml version="1.0" encoding="UTF-8"?>
<svg width="131px" height="20px" viewBox="0 0 131 20" version="1.1" xmlns="http://www.w3.org/2000/svg" xmlns:xlink="http://www.w3.org/1999/xlink">
    <!-- Generator: Sketch 42 (36781) - http://www.bohemiancoding.com/sketch -->
    <title>beta-logotipo-footer</title>
    <desc>Created with Sketch.</desc>
    <defs></defs>
    <g id="Protótipo---processo-seletivo" stroke="none" stroke-width="1" fill="none" fill-rule="evenodd">
        <g id="Tela-login" transform="translate(-95.000000, -628.000000)" fill="#EDF7F9">
            <g id="beta-logotipo-footer" transform="translate(95.000000, 628.000000)">
                <g id="Camada_1">
                    <g fill-rule="nonzero">
                        <g id="XMLID_14_">
                            <path d="M9.6,12.1 C9.6,15.4 6.7,16.3 3.8,16.3 C2.5,16.3 1.2,16.1 0.1,15.9 L0.1,2.1 C1.3,1.9 2.7,1.7 4.1,1.7 C6.5,1.7 8.7,2.4 8.7,5.2 C8.7,6.5 8.1,7.7 6.8,8.3 C8.7,8.9 9.6,10.2 9.6,12.1 Z M1.5,7.7 L4.6,7.7 C6.2,7.6 7.2,6.7 7.2,5.3 C7.2,3.3 5.7,2.8 4,2.8 C3.2,2.8 2.3,2.9 1.6,3 L1.6,7.7 L1.5,7.7 Z M1.5,14.9 C2.2,15.1 3.1,15.2 4,15.2 C6,15.2 8.1,14.6 8.1,12.1 C8.1,9.8 6.1,9.1 3.9,9.1 L1.5,9.1 L1.5,14.9 L1.5,14.9 Z" id="XMLID_467_"></path>
                            <polygon id="XMLID_464_" points="21 16.2 12.5 16.2 12.5 1.7 20.7 1.7 20.7 3 14 3 14 8.1 20.4 8.1 20.4 9.4 14 9.4 14 15 21 15"></polygon>
                            <polygon id="XMLID_462_" points="22.6 1.7 32.7 1.7 32.7 3 28.4 3 28.4 16.2 27 16.2 27 3 22.7 3 22.7 1.7"></polygon>
                            <path d="M34,16.2 L32.5,16.2 L37.7,1.7 L39.6,1.7 L44.8,16.2 L43.3,16.2 L42,12.3 L35.4,12.3 L34,16.2 Z M35.9,11 L41.6,11 L38.7,2.8 L35.9,11 Z" id="XMLID_459_"></path>
                            <polygon id="XMLID_457_" points="46.8 16.9 45.7 16.5 53 0.8 54.1 1.2"></polygon>
                            <polygon id="XMLID_455_" points="53 16.9 51.9 16.5 59.3 0.8 60.4 1.2"></polygon>
                            <path d="M61.7,8.9 C61.7,5.1 62.8,1.4 68,1.4 C73.3,1.4 74.3,5.1 74.3,8.9 C74.3,11.6 73.4,14.4 71.3,15.5 C73,15.7 74.8,16.4 75.9,17.1 L74.3,19.2 C74.3,19.2 72.2,17.1 67.9,16.4 C62.7,16.4 61.7,12.8 61.7,8.9 Z M71.2,8.9 C71.2,6.2 70.8,3.9 68,3.9 C65.2,3.9 64.8,6.1 64.8,8.9 C64.8,11.6 65.2,13.8 68,13.8 C70.8,13.8 71.2,11.6 71.2,8.9 Z" id="XMLID_452_"></path>
                            <path d="M82.4,16.4 C78.3,16.4 76.7,14.6 76.7,10.8 L76.7,1.7 L80,1.7 L80,10.7 C80,12.6 80.2,13.8 82.5,13.8 C84.6,13.8 84.9,12.7 84.9,10.7 L84.9,1.7 L88.2,1.7 L88.2,10.8 C88.1,14.6 86.7,16.4 82.4,16.4 Z" id="XMLID_450_"></path>
                            <path d="M99.4,16.2 L98.3,12.8 L93.5,12.8 L92.4,16.2 L89.1,16.2 L94.1,1.7 L97.6,1.7 L102.5,16.2 L99.4,16.2 Z M95.9,4.7 L94.2,10.4 L97.5,10.4 L95.9,4.7 Z" id="XMLID_447_"></path>
                            <path d="M103.9,2 C105.1,1.8 106.9,1.6 108.6,1.6 C111.5,1.6 114.4,2.4 114.4,6.5 C114.4,9 113.2,10.5 111.5,11 L115.1,16.2 L111.6,16.2 L108.5,11.2 C108,11.2 107.5,11.1 107,11 L107,16.2 L103.8,16.2 L103.8,2 L103.9,2 Z M108.7,9 C110.2,9 111.5,8.6 111.5,6.4 C111.5,4.2 110.1,3.8 108.8,3.8 C108.2,3.8 107.7,3.8 107.3,3.9 L107.3,8.8 C107.6,9 108.2,9 108.7,9 Z" id="XMLID_443_"></path>
                            <polygon id="XMLID_438_" points="120 7.7 121.8 7.7 125.3 1.7 129.1 1.7 124.7 8.8 130.1 16.2 126.2 16.2 121.9 10 120 10 120 16.2 116.8 16.2 116.8 1.7 120 1.7"></polygon>
                        </g>
                    </g>
                </g>
            </g>
        </g>
    </g>
</svg>