<?xml version="1.0" encoding="UTF-8"?>
<svg width="50px" height="33px" viewBox="0 0 50 33" version="1.1" xmlns="http://www.w3.org/2000/svg" xmlns:xlink="http://www.w3.org/1999/xlink">
    <!-- Generator: Sketch 42 (36781) - http://www.bohemiancoding.com/sketch -->
    <title>beta-quark-cadastrar-mais-produto</title>
    <desc>Created with Sketch.</desc>
    <defs></defs>
    <g id="Protótipo---processo-seletivo" stroke="none" stroke-width="1" fill="none" fill-rule="evenodd">
        <g id="Home-saldos" transform="translate(-135.000000, -614.000000)">
            <g id="beta-quark-cadastrar-mais-produto" transform="translate(135.000000, 615.000000)">
                <g id="betaquark-add-produto">
                    <g id="Camada_1">
                        <g id="Group">
                            <g id="XMLID_1055_" stroke="#2D1B77">
                                <path d="M26.2037037,5.95427964 L14.0740741,5.95427964 C13.4259259,5.95427964 13.0555556,6.41945774 13.2407407,7.07070707 L16.2962963,16.1881978 C16.4814815,16.6533759 16.9444444,17.118554 17.5,17.118554 L30.3703704,17.118554 C30.9259259,17.118554 29.1666667,16.5603402 29.3518519,16.0951621 L26.2037037,5.95427964 Z" id="XMLID_1078_"></path>
                                <path d="M18.7962963,27.5385433 C18.7962963,29.1201489 17.5,30.5156831 15.8333333,30.5156831 C14.2592593,30.5156831 12.8703704,29.2131845 12.8703704,27.5385433 C12.8703704,25.9569378 14.1666667,24.5614035 15.8333333,24.5614035 C17.5,24.5614035 18.7962963,25.8639022 18.7962963,27.5385433 L18.7962963,27.5385433 Z" id="XMLID_1074_"></path>
                                <path d="M31.2037037,27.5385433 C31.2037037,29.1201489 29.9074074,30.5156831 28.2407407,30.5156831 C26.6666667,30.5156831 25.2777778,29.2131845 25.2777778,27.5385433 C25.2777778,25.9569378 26.5740741,24.5614035 28.2407407,24.5614035 C29.9074074,24.6544391 31.2037037,25.9569378 31.2037037,27.5385433 L31.2037037,27.5385433 Z" id="XMLID_1060_"></path>
                                <path d="M31.7592593,20.0026582 L14.6296296,20.0026582 L7.77777778,0.186071239 L2.40740741,0.186071239 C1.48148148,0.186071239 0.740740741,0.930356194 0.740740741,1.86071239 C0.740740741,2.79106858 1.48148148,3.53535354 2.40740741,3.53535354 L5.37037037,3.53535354 L12.2222222,23.3519405 L31.6666667,23.3519405 C32.5925926,23.3519405 33.3333333,22.6076555 33.3333333,21.6772993 C33.4259259,20.7469431 32.6851852,20.0026582 31.7592593,20.0026582 L31.7592593,20.0026582 Z" id="XMLID_1056_"></path>
                            </g>
                            <path d="M35.8333333,0.186071239 C28.4259259,0.186071239 22.4074074,6.2333865 22.4074074,13.676236 C22.4074074,21.1190856 28.4259259,27.1664009 35.8333333,27.1664009 C43.2407407,27.1664009 49.2592593,21.1190856 49.2592593,13.676236 C49.2592593,6.2333865 43.2407407,0.186071239 35.8333333,0.186071239 Z M41.7592593,14.9787347 L37.1296296,14.9787347 L37.1296296,19.6305157 L34.537037,19.6305157 L34.537037,14.9787347 L29.9074074,14.9787347 L29.9074074,12.3737374 L34.537037,12.3737374 L34.537037,7.72195641 L37.1296296,7.72195641 L37.1296296,12.3737374 L41.7592593,12.3737374 L41.7592593,14.9787347 Z" id="XMLID_1115_" fill="#2D1B77" fill-rule="nonzero"></path>
                        </g>
                    </g>
                </g>
            </g>
        </g>
    </g>
</svg>