<?xml version="1.0" encoding="UTF-8"?>
<svg width="16px" height="13px" viewBox="0 0 16 13" version="1.1" xmlns="http://www.w3.org/2000/svg" xmlns:xlink="http://www.w3.org/1999/xlink">
    <!-- Generator: Sketch 42 (36781) - http://www.bohemiancoding.com/sketch -->
    <title>XMLID_61_</title>
    <desc>Created with Sketch.</desc>
    <defs></defs>
    <g id="Protótipo---processo-seletivo" stroke="none" stroke-width="1" fill="none" fill-rule="evenodd" fill-opacity="0.35">
        <g id="Realizar-pagamento" transform="translate(-39.000000, -548.000000)" fill-rule="nonzero" fill="#9B9B9B">
            <path d="M54.5929825,548.440437 C54.3333333,548.177596 54.0175439,548.042623 53.6526316,548.042623 L40.3473684,548.042623 C39.9824561,548.042623 39.6666667,548.177596 39.4070175,548.440437 C39.1473684,548.703279 39.0140351,549.022951 39.0140351,549.39235 L39.0140351,559.636066 C39.0140351,560.005464 39.1473684,560.325137 39.4070175,560.587978 C39.6666667,560.85082 39.9824561,560.985792 40.3473684,560.985792 L53.6596491,560.985792 C54.0245614,560.985792 54.3403509,560.85082 54.6,560.587978 C54.8596491,560.325137 54.9929825,560.005464 54.9929825,559.636066 L54.9929825,549.39235 C54.9859649,549.022951 54.8596491,548.703279 54.5929825,548.440437 L54.5929825,548.440437 Z M53.9192982,559.636066 C53.9192982,559.707104 53.8912281,559.771038 53.8421053,559.827869 C53.7929825,559.884699 53.7298246,559.906011 53.6526316,559.906011 L40.3473684,559.906011 C40.277193,559.906011 40.2140351,559.877596 40.1578947,559.827869 C40.1087719,559.771038 40.0807018,559.714208 40.0807018,559.636066 L40.0807018,554.514208 L53.9263158,554.514208 L53.9263158,559.636066 L53.9192982,559.636066 Z M53.9192982,551.274863 L40.0807018,551.274863 L40.0807018,549.39235 C40.0807018,549.321311 40.1087719,549.257377 40.1578947,549.200546 C40.2140351,549.143716 40.2701754,549.122404 40.3473684,549.122404 L53.6596491,549.122404 C53.7298246,549.122404 53.7929825,549.15082 53.8491228,549.200546 C53.9052632,549.257377 53.9263158,549.314208 53.9263158,549.39235 L53.9263158,551.274863 L53.9192982,551.274863 Z" id="XMLID_61_"></path>
        </g>
    </g>
</svg>