<?xml version="1.0" encoding="UTF-8"?>
<svg width="31px" height="25px" viewBox="0 0 31 25" version="1.1" xmlns="http://www.w3.org/2000/svg" xmlns:xlink="http://www.w3.org/1999/xlink">
    <!-- Generator: Sketch 42 (36781) - http://www.bohemiancoding.com/sketch -->
    <title>beta-quark-cartao-credito</title>
    <desc>Created with Sketch.</desc>
    <defs></defs>
    <g id="Protótipo---processo-seletivo" stroke="none" stroke-width="1" fill="none" fill-rule="evenodd">
        <g id="Realizar-pagamento" transform="translate(-99.000000, -36.000000)" fill-rule="nonzero" fill="#311B70">
            <g id="beta-quark-cartao-credito" transform="translate(99.000000, 36.000000)">
                <g id="Camada_1">
                    <g id="XMLID_28_">
                        <path d="M25.7995327,20.4 L2.10046729,20.4 C0.970560748,20.4 0.0434579439,19.4857143 0.0434579439,18.3714286 L0.0434579439,2.1 C0.0434579439,0.985714286 0.970560748,0.0714285714 2.10046729,0.0714285714 L25.8140187,0.0714285714 C26.9439252,0.0714285714 27.871028,0.985714286 27.871028,2.1 L27.871028,18.3714286 C27.871028,19.4857143 26.9439252,20.4 25.7995327,20.4 Z M2.10046729,1.08571429 C1.53551402,1.08571429 1.07196262,1.54285714 1.07196262,2.1 L1.07196262,18.3714286 C1.07196262,18.9285714 1.53551402,19.3857143 2.10046729,19.3857143 L25.8140187,19.3857143 C26.378972,19.3857143 26.8425234,18.9285714 26.8425234,18.3714286 L26.8425234,2.1 C26.8425234,1.54285714 26.378972,1.08571429 25.8140187,1.08571429 L2.10046729,1.08571429 Z" id="XMLID_42_"></path>
                        <path d="M27.3495327,7.7 L0.55046729,7.7 C0.246261682,7.7 0.0289719626,7.5 0.0289719626,7.18571429 L0.0289719626,3.11428571 C0.0289719626,2.81428571 0.231775701,2.6 0.55046729,2.6 L27.3495327,2.6 C27.6537383,2.6 27.871028,2.8 27.871028,3.11428571 L27.871028,7.18571429 C27.871028,7.48571429 27.6537383,7.7 27.3495327,7.7 Z M1.05747664,6.67142857 L26.8280374,6.67142857 L26.8280374,3.62857143 L1.05747664,3.62857143 L1.05747664,6.67142857 Z" id="XMLID_39_"></path>
                        <path d="M24.771028,17.3571429 L16.5285047,17.3571429 C16.2242991,17.3571429 16.0070093,17.1571429 16.0070093,16.8428571 L16.0070093,12.2714286 C16.0070093,11.9714286 16.2098131,11.7571429 16.5285047,11.7571429 L24.771028,11.7571429 C25.0752336,11.7571429 25.2925234,11.9571429 25.2925234,12.2714286 L25.2925234,16.8428571 C25.2925234,17.1428571 25.0752336,17.3571429 24.771028,17.3571429 Z M17.035514,16.3428571 L24.2495327,16.3428571 L24.2495327,12.7857143 L17.035514,12.7857143 L17.035514,16.3428571 L17.035514,16.3428571 Z" id="XMLID_36_"></path>
                        <path d="M6.73598131,10.7428571 L2.60747664,10.7428571 C2.30327103,10.7428571 2.08598131,10.5428571 2.08598131,10.2285714 C2.08598131,9.92857143 2.28878505,9.71428571 2.60747664,9.71428571 L6.73598131,9.71428571 C7.04018692,9.71428571 7.25747664,9.91428571 7.25747664,10.2285714 C7.24299065,10.5428571 7.04018692,10.7428571 6.73598131,10.7428571 Z" id="XMLID_35_"></path>
                        <path d="M12.9214953,10.7428571 L8.79299065,10.7428571 C8.48878505,10.7428571 8.27149533,10.5428571 8.27149533,10.2285714 C8.27149533,9.92857143 8.47429907,9.71428571 8.79299065,9.71428571 L12.9214953,9.71428571 C13.2257009,9.71428571 13.4429907,9.91428571 13.4429907,10.2285714 C13.4285047,10.5428571 13.2257009,10.7428571 12.9214953,10.7428571 Z" id="XMLID_34_"></path>
                        <path d="M9.31448598,12.7714286 L2.60747664,12.7714286 C2.30327103,12.7714286 2.08598131,12.5714286 2.08598131,12.2571429 C2.08598131,11.9428571 2.28878505,11.7428571 2.60747664,11.7428571 L9.31448598,11.7428571 C9.61869159,11.7428571 9.83598131,11.9428571 9.83598131,12.2571429 C9.83598131,12.5714286 9.61869159,12.7714286 9.31448598,12.7714286 Z" id="XMLID_33_"></path>
                        <path d="M12.9214953,12.7714286 L11.3714953,12.7714286 C11.0672897,12.7714286 10.85,12.5714286 10.85,12.2571429 C10.85,11.9428571 11.0528037,11.7428571 11.3714953,11.7428571 L12.9214953,11.7428571 C13.2257009,11.7428571 13.4429907,11.9428571 13.4429907,12.2571429 C13.4429907,12.5714286 13.2257009,12.7714286 12.9214953,12.7714286 Z" id="XMLID_32_"></path>
                        <path d="M27.3495327,24.9714286 L27.146729,24.9714286 L3.3317757,22.3285714 C2.20186916,22.2285714 1.37616822,21.2142857 1.52102804,20.0857143 L1.57897196,19.8285714 C1.57897196,19.5714286 1.7817757,19.3714286 2.04252336,19.3714286 L2.14392523,19.3714286 L25.7995327,19.3714286 C26.364486,19.3714286 26.8280374,18.9142857 26.8280374,18.3571429 L26.8280374,4.95714286 C26.8280374,4.8 26.8859813,4.65714286 26.9873832,4.6 C27.088785,4.5 27.2481308,4.44285714 27.3929907,4.5 L29.0878505,4.7 C29.6528037,4.75714286 30.1163551,5 30.4785047,5.45714286 C30.8406542,5.85714286 31,6.42857143 30.9420561,6.92857143 L29.4065421,23.2428571 C29.3051402,24.2142857 28.3780374,24.9714286 27.3495327,24.9714286 Z M2.56401869,20.4 C2.62196262,20.8571429 2.96962617,21.2571429 3.4911215,21.3142857 L27.2481308,23.9571429 C27.8130841,24.0142857 28.3345794,23.6 28.3780374,23.0428571 L29.9280374,6.72857143 C29.9859813,6.47142857 29.8700935,6.17142857 29.7252336,5.97142857 C29.5658879,5.77142857 29.3196262,5.61428571 29.0588785,5.61428571 L29.0588785,5.61428571 L27.871028,5.51428571 L27.871028,18.3714286 C27.871028,19.4857143 26.9439252,20.4 25.8140187,20.4 L2.56401869,20.4 Z" id="XMLID_29_"></path>
                    </g>
                </g>
            </g>
        </g>
    </g>
</svg>