<?xml version="1.0" encoding="UTF-8"?>
<svg width="15px" height="15px" viewBox="0 0 15 15" version="1.1" xmlns="http://www.w3.org/2000/svg" xmlns:xlink="http://www.w3.org/1999/xlink">
    <!-- Generator: Sketch 42 (36781) - http://www.bohemiancoding.com/sketch -->
    <title>betaquark-pesquisa-prod</title>
    <desc>Created with Sketch.</desc>
    <defs></defs>
    <g id="Protótipo---processo-seletivo" stroke="none" stroke-width="1" fill="none" fill-rule="evenodd">
        <g id="Pesquisa-produtos" transform="translate(-280.000000, -41.000000)" fill-rule="nonzero" fill="#FFFFFF">
            <g id="betaquark-pesquisa-prod" transform="translate(280.000000, 41.000000)">
                <g id="Camada_1">
                    <g id="XMLID_20_">
                        <g id="XMLID_21_">
                            <path d="M10.8870968,5.46774194 C10.8870968,2.46774194 8.46774194,0 5.46774194,0 C2.41935484,0 0,2.41935484 0,5.46774194 C0,8.46774194 2.41935484,10.8870968 5.46774194,10.8870968 C8.46774194,10.8870968 10.8870968,8.46774194 10.8870968,5.46774194 L10.8870968,5.46774194 Z M5.46774194,9.53225806 C3.19354839,9.53225806 1.40322581,7.69354839 1.40322581,5.46774194 C1.40322581,3.19354839 3.24193548,1.40322581 5.46774194,1.40322581 C7.74193548,1.40322581 9.53225806,3.24193548 9.53225806,5.46774194 C9.53225806,7.69354839 7.69354839,9.53225806 5.46774194,9.53225806 L5.46774194,9.53225806 Z" id="XMLID_25_"></path>
                            <path d="M14.1290323,12.1935484 L10.7903226,8.85483871 C10.3064516,9.62903226 9.62903226,10.3064516 8.85483871,10.7903226 L12.1935484,14.1290323 C12.7258065,14.6612903 13.5967742,14.6612903 14.1290323,14.1290323 C14.6612903,13.5967742 14.6612903,12.7258065 14.1290323,12.1935484 L14.1290323,12.1935484 Z" id="XMLID_22_"></path>
                        </g>
                    </g>
                </g>
            </g>
        </g>
    </g>
</svg>