<?xml version="1.0" encoding="UTF-8"?>
<svg width="36px" height="36px" viewBox="0 0 36 36" version="1.1" xmlns="http://www.w3.org/2000/svg" xmlns:xlink="http://www.w3.org/1999/xlink">
    <!-- Generator: Sketch 42 (36781) - http://www.bohemiancoding.com/sketch -->
    <title>beta-quark-pesquisa-produto</title>
    <desc>Created with Sketch.</desc>
    <defs></defs>
    <g id="Protótipo---processo-seletivo" stroke="none" stroke-width="1" fill="none" fill-rule="evenodd">
        <g id="Pesquisa-produtos" transform="translate(-28.000000, -31.000000)">
            <g id="beta-quark-pesquisa-produto" transform="translate(26.000000, 29.000000)">
                <g id="Camada_1">
                    <g id="XMLID_56_">
                        <g id="XMLID_153_"></g>
                        <g id="XMLID_151_" transform="translate(33.120000, 16.000000)" fill-rule="nonzero" fill="#311B70">
                            <path d="M1.744,13.088 L0.032,12.048 C1.504,9.632 2.288,6.848 2.288,4.016 C2.288,2.848 2.16,1.68 1.888,0.544 L3.84,0.096 C4.128,1.376 4.288,2.688 4.288,4.016 C4.304,7.216 3.408,10.352 1.744,13.088 Z" id="XMLID_152_"></path>
                        </g>
                        <g id="XMLID_149_" transform="translate(33.920000, 12.800000)" fill-rule="nonzero" fill="#311B70">
                            <path d="M0.656,2.144 C0.512,1.712 0.336,1.28 0.144,0.848 L1.968,0.032 C2.176,0.512 2.384,1.008 2.544,1.488 L0.656,2.144 Z" id="XMLID_150_"></path>
                        </g>
                        <g id="XMLID_143_" transform="translate(32.640000, 10.080000)" fill-rule="nonzero" fill="#311B70">
                            <path d="M0.8,2.352 C0.576,1.952 0.32,1.552 0.064,1.168 L1.712,0.032 C2,0.464 2.288,0.912 2.544,1.36 L0.8,2.352 Z" id="XMLID_148_"></path>
                        </g>
                        <g id="XMLID_69_" transform="translate(31.200000, 8.000000)" fill-rule="nonzero" fill="#311B70">
                            <path d="M0.864,2.384 C0.608,2.064 0.336,1.744 0.048,1.44 L1.504,0.064 C1.824,0.4 2.128,0.768 2.432,1.136 L0.864,2.384 Z" id="XMLID_70_"></path>
                        </g>
                        <g id="XMLID_67_" transform="translate(29.440000, 6.240000)" fill-rule="nonzero" fill="#311B70">
                            <path d="M0.96,2.384 C0.656,2.112 0.352,1.84 0.032,1.6 L1.264,0.016 C1.632,0.304 1.984,0.592 2.32,0.912 L0.96,2.384 Z" id="XMLID_68_"></path>
                        </g>
                        <g id="XMLID_65_" transform="translate(2.560000, 2.560000)" fill-rule="nonzero" fill="#311B70">
                            <path d="M17.44,34.864 C7.84,34.864 0.016,27.04 0.016,17.44 C0.016,7.84 7.84,0.016 17.44,0.016 C20.752,0.016 23.984,0.944 26.768,2.72 L25.696,4.4 C23.232,2.832 20.384,2 17.44,2 C8.944,2 2.016,8.912 2.016,17.424 C2.016,25.92 8.928,32.848 17.44,32.848 C20.608,32.848 23.664,31.888 26.256,30.08 L27.408,31.712 C24.464,33.776 21.024,34.864 17.44,34.864 Z" id="XMLID_66_"></path>
                        </g>
                        <g id="XMLID_61_" transform="translate(8.000000, 8.000000)" fill-rule="nonzero" fill="#311B70">
                            <path d="M12,23.984 C5.392,23.984 0.016,18.608 0.016,12 C0.016,5.392 5.392,0.016 12,0.016 C18.608,0.016 23.984,5.392 23.984,12 C23.984,18.608 18.608,23.984 12,23.984 Z M12,1.008 C5.936,1.008 1.008,5.936 1.008,12 C1.008,18.064 5.936,22.992 12,22.992 C18.064,22.992 22.992,18.064 22.992,12 C22.992,5.936 18.064,1.008 12,1.008 Z" id="XMLID_62_"></path>
                        </g>
                        <circle id="XMLID_60_" fill="#311B70" fill-rule="nonzero" cx="32.176" cy="31.328" r="2.288"></circle>
                        <g id="XMLID_57_" transform="translate(14.560000, 14.560000)" fill-rule="nonzero" fill="#311B70">
                            <path d="M5.44,0.048 C4.192,0.048 3.056,0.48 2.144,1.2 C2.48,1.008 2.864,0.88 3.28,0.88 C4.544,0.88 5.568,1.904 5.568,3.168 C5.568,4.432 4.544,5.456 3.28,5.456 C2.016,5.456 0.992,4.432 0.992,3.168 C0.992,2.72 1.12,2.304 1.344,1.952 C0.528,2.896 0.032,4.112 0.032,5.456 C0.032,8.432 2.448,10.848 5.424,10.848 C8.4,10.848 10.816,8.432 10.816,5.456 C10.816,2.48 8.416,0.048 5.44,0.048 Z" id="XMLID_59_"></path>
                        </g>
                    </g>
                </g>
            </g>
        </g>
    </g>
</svg>